<svg height="512" viewBox="0 0 60 60" width="512" xmlns="http://www.w3.org/2000/svg"><g id="Icons"><path d="m47 5v14h-22a4 4 0 0 0 -3.28 1.71l-.99-.99a2.438 2.438 0 0 0 -3.46 0l-12.27 12.28v-27z" fill="#e8edfc"/><path d="m44 5h3v14h-3z" fill="#cad9fc"/><path d="m51 4v15h-4v-14h-42v32h16v4h-17a3 3 0 0 1 -3-3v-34a3 3 0 0 1 3-3h44a3 3 0 0 1 3 3z" fill="#c6d8fb"/><path d="m48 1h-3a3 3 0 0 1 3 3v15h3v-15a3 3 0 0 0 -3-3z" fill="#a4c3fd"/><circle cx="12.5" cy="12.5" fill="#e8edfc" r="3.5"/><path d="m41 13a2.006 2.006 0 0 1 -2 2h-6a2 2 0 0 1 0-4h.05a2.5 2.5 0 0 1 4.9 0h1.05a2.006 2.006 0 0 1 2 2z" fill="#e8edfc"/><path d="m39 11h-1.05a2.508 2.508 0 0 0 -2.45-2 2.481 2.481 0 0 0 -1.5.51 2.488 2.488 0 0 1 .95 1.49h1.05a2 2 0 0 1 0 4h3a2 2 0 0 0 0-4z" fill="#cad9fc"/><path d="m21.72 20.71a4.017 4.017 0 0 0 -.72 2.29v14h-16v-5l12.27-12.28a2.438 2.438 0 0 1 3.46 0z" fill="#c6d8fb"/><path d="m20.73 19.72a2.43 2.43 0 0 0 -3.23-.189 2.285 2.285 0 0 1 .23.189l.99.99a4.017 4.017 0 0 0 -.72 2.29v14h3v-14a4.017 4.017 0 0 1 .72-2.29z" fill="#a4c3fd"/><path d="m59 23v4h-38v-4a4 4 0 0 1 4-4h30a4 4 0 0 1 4 4z" fill="#a4c2f7"/><path d="m24.72 20.71a4 4 0 0 1 3.28-1.71h-3a4 4 0 0 0 -4 4v4h3v-4a4.017 4.017 0 0 1 .72-2.29z" fill="#fff"/><path d="m55 19h-3a4 4 0 0 1 4 4v4h3v-4a4 4 0 0 0 -4-4z" fill="#7facfa"/><path d="m59 27v28a4 4 0 0 1 -4 4h-30a4 4 0 0 1 -4-4v-28z" fill="#e8edfc"/><path d="m24 55v-28h-3v28a4 4 0 0 0 4 4h3a4 4 0 0 1 -4-4z" fill="#fff"/><path d="m56 27v28a4 4 0 0 1 -4 4h3a4 4 0 0 0 4-4v-28z" fill="#cad9fc"/></g><g id="Icons_copy" data-name="Icons copy"><path d="m0 30h2v8h-2z" fill="#fff"/><g fill="#428dff"><circle cx="1" cy="34" r="1"/><path d="m12.5 8a4.5 4.5 0 1 0 4.5 4.5 4.505 4.505 0 0 0 -4.5-4.5zm0 7a2.5 2.5 0 1 1 2.5-2.5 2.5 2.5 0 0 1 -2.5 2.5z"/><path d="m33 16h6a3 3 0 0 0 0-6h-.337a3.5 3.5 0 0 0 -6.364.083 3 3 0 0 0 .701 5.917zm.05-4a1 1 0 0 0 .98-.8 1.5 1.5 0 0 1 2.94 0 1 1 0 0 0 .98.8h1.05a1 1 0 0 1 0 2h-6a1 1 0 0 1 -1-1 1.012 1.012 0 0 1 1.05-1z"/><path d="m55 18h-3v-14a4 4 0 0 0 -4-4h-44a4 4 0 0 0 -4 4v26a1 1 0 0 0 2 0v-26a1.96 1.96 0 0 1 .075-.511l1.925 1.925v31.172l-1.925 1.925a1.96 1.96 0 0 1 -.075-.511 1 1 0 0 0 -2 0 4 4 0 0 0 4 4h16v13a5.006 5.006 0 0 0 5 5h30a5.006 5.006 0 0 0 5-5v-32a5.006 5.006 0 0 0 -5-5zm-5-14v14h-2v-12.586l1.925-1.925a1.96 1.96 0 0 1 .075.511zm-46.511-1.925a1.96 1.96 0 0 1 .511-.075h44a1.96 1.96 0 0 1 .511.075l-1.925 1.925h-41.172zm16.511 37.925h-16a1.96 1.96 0 0 1 -.511-.075l1.925-1.925h14.586zm0-17v13h-14v-3.586l11.98-11.991a1.473 1.473 0 0 1 2.043 0l.462.461a4.941 4.941 0 0 0 -.485 2.116zm1.441-3.983a3.522 3.522 0 0 0 -4.879 0l-10.562 10.567v-23.584h40v12h-21a4.96 4.96 0 0 0 -3.3 1.274zm36.559 35.983a3 3 0 0 1 -3 3h-30a3 3 0 0 1 -3-3v-27h36zm0-29h-36v-3a3 3 0 0 1 3-3h30a3 3 0 0 1 3 3z"/><circle cx="25" cy="23" r="1"/><circle cx="29" cy="23" r="1"/><circle cx="33" cy="23" r="1"/><path d="m42 22h-4a1 1 0 0 0 0 2h4a1 1 0 0 0 0-2z"/><circle cx="25" cy="31" r="1"/><circle cx="25" cy="35" r="1"/><circle cx="25" cy="39" r="1"/><circle cx="25" cy="43" r="1"/><circle cx="25" cy="47" r="1"/><circle cx="25" cy="51" r="1"/><circle cx="25" cy="55" r="1"/><path d="m29 56a1 1 0 0 0 1-1v-24a1 1 0 0 0 -2 0v24a1 1 0 0 0 1 1z"/><path d="m33 32h16a1 1 0 0 0 0-2h-16a1 1 0 0 0 0 2z"/><path d="m33 48h16a1 1 0 0 0 0-2h-16a1 1 0 0 0 0 2z"/><path d="m36 42a1 1 0 0 0 0 2h11a1 1 0 0 0 0-2z"/><path d="m33 40h12a1 1 0 0 0 0-2h-12a1 1 0 0 0 0 2z"/><path d="m44 35a1 1 0 0 0 1 1h6a1 1 0 0 0 0-2h-6a1 1 0 0 0 -1 1z"/><path d="m35 34a1 1 0 0 0 0 2h6a1 1 0 0 0 0-2z"/><path d="m51 50h-6a1 1 0 0 0 0 2h6a1 1 0 0 0 0-2z"/><path d="m41 52a1 1 0 0 0 0-2h-6a1 1 0 0 0 0 2z"/><path d="m47 54h-13a1 1 0 0 0 0 2h13a1 1 0 0 0 0-2z"/><path d="m48 39a1 1 0 0 0 1 1h4a1 1 0 0 0 0-2h-4a1 1 0 0 0 -1 1z"/></g></g></svg>