<svg id="Capa_1" enable-background="new 0 0 512 512" height="512" viewBox="0 0 512 512" width="512" xmlns="http://www.w3.org/2000/svg"><g><path d="m463 143h-60v-30c0-16.569 13.431-30 30-30 16.569 0 30 13.431 30 30z" fill="#ff535f"/><path d="m45 83h60v60h-60z" fill="#e2e2eb"/><path d="m183.321 50.5-28.631 92.5h101.31l15-44.5-15-48z" fill="#606075"/><path d="m328.679 50.5h-72.679v92.5h101.31z" fill="#434353"/><path d="m27.461 133.5c-.056 0 69.539 328 69.539 328h159l50-161-50-167z" fill="#8989a8"/><path d="m256 133.5h256v328h-256z" fill="#606075"/><path d="m85 239.5 12-15.955v-20.45c0-38.437-31.159-69.596-69.596-69.596h-27.404v328h97v-80.485l-10-13.514 10-16.485v-33.735l-15-13.78 15-16.22v-33.735z" fill="#606075"/><g fill="#434353"><path d="m47.801 351.015h49.199v30h-49.199z"/><path d="m47.801 287.28h49.199v30h-49.199z"/><path d="m47.801 223.545h49.199v30h-49.199z"/><path d="m422 188h30v30h-30z"/></g><path d="m166 300c0 49.706 40.294 90 90 90l18-83.5-18-96.5c-49.706 0-90 40.294-90 90z" fill="#00a9de"/><path d="m256 210v180c49.706 0 90-40.294 90-90s-40.294-90-90-90z" fill="#0090be"/><path d="m181 300c0-41.355 33.645-75 75-75l7-9.5-7-20.5c-57.897 0-105 47.103-105 105s47.103 105 105 105l10-16.5-10-13.5c-41.355 0-75-33.645-75-75z" fill="#606075"/><path d="m256 195v30c41.355 0 75 33.645 75 75s-33.645 75-75 75v30c57.897 0 105-47.103 105-105s-47.103-105-105-105z" fill="#434353"/><path d="m211 300c0 24.813 20.187 45 45 45l13-34.5-13-55.5c-24.813 0-45 20.187-45 45z" fill="#2ad7f5"/><path d="m256 255v90c24.813 0 45-20.187 45-45s-20.187-45-45-45z" fill="#00a9de"/></g></svg>